<?xml version="1.0" standalone="no"?>
<!DOCTYPE svg PUBLIC "-//W3C//DTD SVG 20010904//EN"
 "http://www.w3.org/TR/2001/REC-SVG-20010904/DTD/svg10.dtd">
<svg version="1.0" xmlns="http://www.w3.org/2000/svg"
 width="128.000000pt" height="128.000000pt" viewBox="0 0 128.000000 128.000000"
 preserveAspectRatio="xMidYMid meet">

<g transform="translate(0.000000,128.000000) scale(0.100000,-0.100000)"
fill="#000000" stroke="none">
<path d="M560 790 c0 -176 -2 -320 -5 -320 -3 0 -37 23 -75 51 -46 33 -76 48
-87 44 -10 -3 -52 -31 -93 -63 l-75 -57 -3 -138 -3 -137 76 0 75 0 0 69 c0 78
14 100 49 81 18 -9 21 -20 21 -80 l0 -70 315 0 315 0 0 454 c0 250 -3 461 -6
470 -5 14 -37 16 -255 16 l-249 0 0 -320z m470 -155 l0 -445 -220 0 -220 0 0
445 0 445 220 0 220 0 0 -445z m-545 -148 l70 -52 0 -120 0 -120 -47 -3 -48
-3 0 62 c0 70 -17 99 -57 99 -42 0 -63 -33 -63 -100 l0 -60 -45 0 -45 0 0 123
0 122 72 53 c39 28 76 52 82 52 6 0 43 -24 81 -53z"/>
<path d="M657 1004 c-4 -4 -7 -32 -7 -61 l0 -54 63 3 62 3 0 55 0 55 -55 3
c-31 2 -59 0 -63 -4z m88 -54 c0 -21 -5 -26 -32 -28 -31 -3 -33 -1 -33 28 0
29 2 31 33 28 27 -2 32 -7 32 -28z"/>
<path d="M844 997 c-3 -8 -4 -34 -2 -58 l3 -44 63 -3 63 -3 -3 58 -3 58 -58 3
c-43 2 -59 -1 -63 -11z m96 -48 c0 -28 -2 -30 -32 -27 -28 2 -34 8 -36 31 -3
25 -1 27 32 27 33 0 36 -2 36 -31z"/>
<path d="M652 763 l3 -58 60 0 60 0 0 55 0 55 -63 3 -63 3 3 -58z m98 -3 c0
-28 -3 -30 -35 -30 -32 0 -35 2 -35 30 0 28 3 30 35 30 32 0 35 -2 35 -30z"/>
<path d="M844 806 c-3 -7 -4 -33 -2 -57 l3 -44 60 0 60 0 3 58 3 57 -61 0
c-42 0 -62 -4 -66 -14z m96 -46 c0 -28 -3 -30 -35 -30 -30 0 -35 3 -35 23 0
31 7 37 42 37 24 0 28 -4 28 -30z"/>
<path d="M650 570 l0 -61 63 3 62 3 0 55 0 55 -62 3 -63 3 0 -61z m100 0 c0
-28 -3 -30 -35 -30 -32 0 -35 2 -35 30 0 28 3 30 35 30 32 0 35 -2 35 -30z"/>
<path d="M844 617 c-3 -8 -4 -34 -2 -58 l3 -44 63 -3 63 -3 -3 58 -3 58 -58 3
c-43 2 -59 -1 -63 -11z m96 -48 c0 -28 -2 -30 -32 -27 -28 2 -34 8 -36 31 -3
25 -1 27 32 27 33 0 36 -2 36 -31z"/>
<path d="M654 427 c-3 -8 -4 -34 -2 -58 l3 -44 60 0 60 0 0 55 0 55 -58 3
c-43 2 -59 -1 -63 -11z m91 -47 c0 -21 -5 -26 -32 -28 -31 -3 -33 -1 -33 28 0
29 2 31 33 28 27 -2 32 -7 32 -28z"/>
<path d="M844 427 c-3 -8 -4 -34 -2 -58 l3 -44 60 0 60 0 0 55 0 55 -58 3
c-43 2 -59 -1 -63 -11z m96 -47 c0 -27 -3 -30 -30 -30 -18 0 -33 6 -36 15 -11
27 4 45 36 45 27 0 30 -3 30 -30z"/>
</g>
</svg>
