<?xml version="1.0" standalone="no"?>
<!DOCTYPE svg PUBLIC "-//W3C//DTD SVG 20010904//EN"
 "http://www.w3.org/TR/2001/REC-SVG-20010904/DTD/svg10.dtd">
<svg version="1.0" xmlns="http://www.w3.org/2000/svg"
 width="128.000000pt" height="128.000000pt" viewBox="0 0 128.000000 128.000000"
 preserveAspectRatio="xMidYMid meet">

<g transform="translate(0.000000,128.000000) scale(0.100000,-0.100000)"
fill="#000000" stroke="none">
<path d="M485 926 c-54 -20 -121 -92 -135 -147 -49 -183 139 -339 306 -254
l49 25 100 -100 c80 -80 103 -98 113 -88 10 10 -8 33 -88 113 l-100 100 25 49
c54 107 10 236 -98 293 -43 22 -125 26 -172 9z m142 -41 c48 -20 71 -41 94
-87 59 -115 -30 -258 -161 -258 -186 0 -245 256 -78 339 51 25 95 27 145 6z"/>
<path d="M466 839 c-32 -25 -60 -75 -52 -95 9 -24 26 -15 42 22 10 24 26 40
49 50 19 8 35 21 35 29 0 22 -43 19 -74 -6z"/>
</g>
</svg>
